<?xml version="1.0" encoding="UTF-8" standalone="no"?><!DOCTYPE svg PUBLIC "-//W3C//DTD SVG 1.1//EN" "http://www.w3.org/Graphics/SVG/1.1/DTD/svg11.dtd"><svg width="100%" height="100%" viewBox="0 0 450 450" version="1.1" xmlns="http://www.w3.org/2000/svg" xmlns:xlink="http://www.w3.org/1999/xlink" xml:space="preserve" style="fill-rule:evenodd;clip-rule:evenodd;stroke-linejoin:round;stroke-miterlimit:1.41421;"><path id="undercurrent_logo_blue" d="M310,326.5c-5.519,0 -10,4.481 -10,10c0,5.519 4.481,10 10,10l70,0c5.519,0 10,4.481 10,10c0,5.519 -4.481,10 -10,10l-45,0c-5.519,0 -10,4.481 -10,10c0,5.519 4.481,10 10,10l11.125,0l-0.054,0.057c5.016,0.535 8.929,4.786 8.929,9.943c0,5.519 -4.481,10 -10,10l-90,0c-5.519,0 -10,4.481 -10,10c0,5.519 4.481,10 10,10l40,0c5.519,0 10,4.481 10,10c0,5.519 -4.481,10 -10,10c-23.083,-0.255 -46.238,-0.386 -70.865,2.056c-1.822,0.219 -3.652,0.414 -5.489,0.584l-0.004,0.001l0,0c-6.138,0.568 -12.356,0.859 -18.642,0.859c-29.362,0 -57.255,-6.341 -82.383,-17.727c-7.36,-1.945 -18.973,-3.052 -37.617,-2.773c-5.519,0 -10,-4.481 -10,-10c0,-5.318 4.161,-9.673 9.402,-9.982l-0.023,-0.018l126.621,0c5.52,-0.001 10,-4.481 10,-10c0,-5.519 -4.481,-10 -10,-10l-164.262,0c-5.52,0 -10,-4.481 -10,-10c0,-4.856 3.468,-8.907 8.06,-9.812l-0.141,-0.188l46.39,0c5.52,-0.001 10,-4.481 10,-10c0,-5.519 -4.48,-10 -10,-10l-70,0c-5.519,0 -10,-4.481 -10,-10c0,-5.519 4.481,-10 10,-10l23.953,0c5.52,-0.001 10,-4.481 10,-10c0,-5.519 -4.481,-10 -10,-10l-16.891,0c-7.959,0.409 -15.35,-4.528 -18.671,-17.44c-2.907,-13.563 -4.438,-27.634 -4.438,-42.06l0,-200c0,-27.596 22.405,-50 50,-50c27.596,0 50,22.404 50,50l0,200l0.002,0.646c0.349,54.895 45.022,99.354 99.998,99.354c55.192,0 100,-44.808 100,-100l0,-200c0,-27.596 22.405,-50 50,-50c27.596,0 50,22.404 50,50l0,200l-0.001,0.647c-0.041,12.95 -1.316,25.613 -3.713,37.876l0,0c-2.127,13.188 4.037,17.856 14.627,17.977l29.087,0c5.519,0 10,4.481 10,10c0,5.519 -4.481,10 -10,10l-130,0Zm-288,53c0,-5.519 -4.481,-10 -10,-10c-5.519,0 -10,4.481 -10,10c0,5.519 4.481,10 10,10c5.519,0 10,-4.481 10,-10Zm291,-3c0,-5.519 -4.481,-10 -10,-10c-5.519,0 -10,4.481 -10,10c0,5.519 4.481,10 10,10c5.519,0 10,-4.481 10,-10Zm97,-30c5.519,0 10,4.481 10,10c0,5.519 -4.481,10 -10,10c-5.519,0 -10,-4.481 -10,-10c0,-5.519 4.481,-10 10,-10Z" style="fill:#fff;"/></svg>